# xmcd
# 
# Track frame offsets:
#     150
#     11254
#     24976
#     39269
#     52023
#     61514
#     72263
#     85815
#     96483
#     111417
#     124114
#     136572
#     152523
#     162858
# 
# Disc length: 2452
# 
# Revision: 1
# Processed by: cddbd v1.5.2PL0 Copyright (c) Steve Scherf et al.
# Submitted via: BonkEnc v1.0.6
# 
DISCID=a409920e
DTITLE=DELMIRO BARROS - É and OU - ASSIM
DYEAR=2002
DGENRE=VAQUEJADA
TTITLE0=meu ex-amor
TTITLE1=linda pequenina
TTITLE2=um cavalo abandonado
TTITLE3=ingratidão
TTITLE4=heroi vaqueiro
TTITLE5=dona tristeza
TTITLE6=doido de prazer
TTITLE7=paixão pra mais de mil
TTITLE8=só quero quem me quer
TTITLE9=história de paixão
TTITLE10=casa do coração
TTITLE11=abelha humana
TTITLE12=é and ou - assim 
TTITLE13=sou poeta
EXTD=
EXTT0=
EXTT1=
EXTT2=
EXTT3=
EXTT4=
EXTT5=
EXTT6=
EXTT7=
EXTT8=
EXTT9=
EXTT10=
EXTT11=
EXTT12=
EXTT13=
PLAYORDER=
